<svg width="14" height="9" viewBox="0 0 14 9" fill="none" xmlns="http://www.w3.org/2000/svg">
<path d="M0.419165 1.05756C0.942365 0.522357 1.67077 0.480357 2.31037 1.05756L6.99996 5.55396L11.6896 1.05756C12.3292 0.480357 13.0588 0.522357 13.5784 1.05756C14.1016 1.59156 14.068 2.49396 13.5784 2.99556C13.0912 3.49716 7.94436 8.39796 7.94436 8.39796C7.8218 8.52498 7.67491 8.62601 7.51244 8.69501C7.34998 8.76402 7.17528 8.79958 6.99876 8.79958C6.82225 8.79958 6.64755 8.76402 6.48509 8.69501C6.32262 8.62601 6.17573 8.52498 6.05317 8.39796C6.05317 8.39796 0.908765 3.49716 0.419165 2.99556C-0.0716346 2.49396 -0.104035 1.59156 0.419165 1.05756Z" fill="#363636"/>
</svg>
