<svg width="20" height="20" viewBox="0 0 20 20" fill="none" xmlns="http://www.w3.org/2000/svg">
<path d="M3.54163 3.95837H3.12496C2.90395 3.95837 2.69198 4.04617 2.5357 4.20245C2.37942 4.35873 2.29163 4.57069 2.29163 4.79171V16.4584C2.29163 16.6794 2.37942 16.8913 2.5357 17.0476C2.69198 17.2039 2.90395 17.2917 3.12496 17.2917H16.875C17.096 17.2917 17.3079 17.2039 17.4642 17.0476C17.6205 16.8913 17.7083 16.6794 17.7083 16.4584V4.79171C17.7083 4.57069 17.6205 4.35873 17.4642 4.20245C17.3079 4.04617 17.096 3.95837 16.875 3.95837H16.4583M13.9583 3.95837H6.04163M15.2083 5.20837V2.70837M4.79163 5.20837V2.70837" stroke="#888888" stroke-linecap="round" stroke-linejoin="round"/>
<path d="M8.3708 13.0367C8.8086 13.3322 9.31857 13.5031 9.84607 13.5309C10.3736 13.5588 10.8987 13.4426 11.3652 13.1948C11.8317 12.9469 12.2219 12.5768 12.4941 12.1242C12.7663 11.6715 12.9102 11.1532 12.9104 10.625M11.6275 8.21166C11.1896 7.91657 10.6797 7.74616 10.1523 7.71867C9.62501 7.69118 9.10014 7.80765 8.63394 8.05561C8.16773 8.30356 7.77776 8.67366 7.50578 9.12627C7.23381 9.57888 7.09007 10.0969 7.08997 10.625" stroke="#888888" stroke-linecap="round" stroke-linejoin="round"/>
<path d="M12.4608 10.625H11.3671L12.8713 9.12122L14.375 10.625H12.4608ZM7.53917 10.6254H8.63292L7.12875 12.1291L5.625 10.6254H7.53917V10.6254Z" stroke="#888888" stroke-linecap="round" stroke-linejoin="round"/>
</svg>
