<svg width="20" height="20" viewBox="0 0 20 20" fill="none" xmlns="http://www.w3.org/2000/svg">
<path d="M13.85 5.17497C13.7638 5.10667 13.6648 5.05613 13.5589 5.02627C13.453 4.99641 13.3423 4.98782 13.233 5.00099C13.1238 5.01416 13.0182 5.04883 12.9225 5.10301C12.8267 5.15718 12.7426 5.22979 12.675 5.31663L6.8417 12.8166L3.98337 9.3333C3.91632 9.24405 3.83203 9.16919 3.7355 9.11314C3.63896 9.0571 3.53215 9.02102 3.4214 9.00705C3.31065 8.99308 3.19823 9.0015 3.0908 9.03181C2.98337 9.06212 2.88312 9.11371 2.79601 9.18351C2.7089 9.25331 2.6367 9.3399 2.5837 9.43814C2.5307 9.53638 2.49797 9.64426 2.48746 9.75539C2.47696 9.86652 2.48889 9.97863 2.52254 10.0851C2.55619 10.1915 2.61088 10.2901 2.68337 10.375L6.15837 14.6916C6.2368 14.7883 6.3359 14.8662 6.44838 14.9196C6.56086 14.9729 6.68387 15.0004 6.80837 15C6.94052 15.0059 7.07217 14.9802 7.19244 14.9252C7.31272 14.8701 7.41815 14.7872 7.50004 14.6833L14.025 6.34997C14.0916 6.26166 14.1398 6.16099 14.1671 6.05383C14.1943 5.94667 14.2 5.83517 14.1837 5.72581C14.1674 5.61645 14.1295 5.51143 14.0722 5.41686C14.0149 5.32229 13.9394 5.24006 13.85 5.17497ZM18.0167 5.17497C17.9304 5.10667 17.8315 5.05613 17.7256 5.02627C17.6197 4.99641 17.5089 4.98782 17.3997 5.00099C17.2904 5.01416 17.1849 5.04883 17.0891 5.10301C16.9934 5.15718 16.9093 5.22979 16.8417 5.31663L11.0084 12.8166L10.5 12.1916L9.45004 13.5416L10.3667 14.6833C10.4451 14.78 10.5442 14.8579 10.6567 14.9112C10.7692 14.9646 10.8922 14.9921 11.0167 14.9916C11.1419 14.9911 11.2653 14.9623 11.3778 14.9075C11.4904 14.8526 11.5891 14.7732 11.6667 14.675L18.1917 6.34163C18.2569 6.25358 18.3041 6.15353 18.3306 6.0472C18.3572 5.94088 18.3624 5.83037 18.3462 5.72201C18.3299 5.61364 18.2925 5.50954 18.2359 5.41567C18.1794 5.32181 18.1049 5.24001 18.0167 5.17497Z" fill="#888888"/>
<path d="M7.25835 10.8833L8.33335 9.53328L8.16668 9.33328C8.10089 9.24213 8.01734 9.16524 7.92105 9.10722C7.82476 9.04921 7.71773 9.01127 7.60641 8.9957C7.49508 8.98013 7.38175 8.98725 7.27324 9.01662C7.16473 9.04599 7.06329 9.09701 6.97501 9.16662C6.88941 9.23538 6.81824 9.32039 6.76559 9.41676C6.71295 9.51312 6.67987 9.61894 6.66825 9.72813C6.65663 9.83732 6.66671 9.94773 6.69791 10.053C6.7291 10.1583 6.78079 10.2564 6.85001 10.3416L7.25835 10.8833Z" fill="#888888"/>
</svg>
