<svg width="50" height="35" viewBox="0 0 20 20" fill="none" xmlns="http://www.w3.org/2000/svg">
<path d="M14.6334 17.5C14.5001 17.5005 14.3687 17.4691 14.25 17.4083L10 15.1833L5.75005 17.4083C5.61204 17.4809 5.45644 17.5133 5.30094 17.5018C5.14544 17.4903 4.99628 17.4355 4.8704 17.3435C4.74453 17.2514 4.647 17.126 4.58889 16.9813C4.53079 16.8366 4.51444 16.6785 4.54171 16.525L5.37505 11.8333L1.94171 8.49997C1.83459 8.39307 1.75861 8.25902 1.7219 8.11221C1.6852 7.9654 1.68917 7.81136 1.73338 7.66663C1.78168 7.51853 1.87053 7.38693 1.98984 7.28676C2.10915 7.1866 2.25415 7.12189 2.40838 7.09997L7.15838 6.4083L9.25005 2.1333C9.31828 1.99241 9.42483 1.87358 9.55747 1.79044C9.69012 1.7073 9.8435 1.66321 10 1.66321C10.1566 1.66321 10.31 1.7073 10.4426 1.79044C10.5753 1.87358 10.6818 1.99241 10.75 2.1333L12.8667 6.39997L17.6167 7.09163C17.7709 7.11355 17.9159 7.17827 18.0353 7.27843C18.1546 7.37859 18.2434 7.51019 18.2917 7.6583C18.3359 7.80303 18.3399 7.95706 18.3032 8.10388C18.2665 8.25069 18.1905 8.38474 18.0834 8.49163L14.65 11.825L15.4834 16.5166C15.5131 16.6729 15.4976 16.8343 15.4385 16.982C15.3794 17.1297 15.2793 17.2573 15.15 17.35C14.9991 17.4557 14.8174 17.5085 14.6334 17.5Z" fill="#888888"/>
</svg>
