<svg width="4" height="21" viewBox="0 0 4 21" fill="none" xmlns="http://www.w3.org/2000/svg">
<path fill-rule="evenodd" clip-rule="evenodd" d="M2 0.5C2.53043 0.5 3.03914 0.710714 3.41421 1.08579C3.78929 1.46086 4 1.96957 4 2.5C4 3.03043 3.78929 3.53914 3.41421 3.91421C3.03914 4.28929 2.53043 4.5 2 4.5C1.46957 4.5 0.96086 4.28929 0.585787 3.91421C0.210714 3.53914 0 3.03043 0 2.5C0 1.96957 0.210714 1.46086 0.585787 1.08579C0.96086 0.710714 1.46957 0.5 2 0.5ZM2 8.5C2.53043 8.5 3.03914 8.71071 3.41421 9.08579C3.78929 9.46086 4 9.96957 4 10.5C4 11.0304 3.78929 11.5391 3.41421 11.9142C3.03914 12.2893 2.53043 12.5 2 12.5C1.46957 12.5 0.96086 12.2893 0.585787 11.9142C0.210714 11.5391 0 11.0304 0 10.5C0 9.96957 0.210714 9.46086 0.585787 9.08579C0.96086 8.71071 1.46957 8.5 2 8.5ZM2 16.5C2.53043 16.5 3.03914 16.7107 3.41421 17.0858C3.78929 17.4609 4 17.9696 4 18.5C4 19.0304 3.78929 19.5391 3.41421 19.9142C3.03914 20.2893 2.53043 20.5 2 20.5C1.46957 20.5 0.96086 20.2893 0.585787 19.9142C0.210714 19.5391 0 19.0304 0 18.5C0 17.9696 0.210714 17.4609 0.585787 17.0858C0.96086 16.7107 1.46957 16.5 2 16.5Z" fill="#CCCCCC"/>
</svg>
