<svg width="26" height="26" viewBox="0 0 26 26" fill="none" xmlns="http://www.w3.org/2000/svg">
<path d="M11.3879 1.20198C11.5366 0.900862 11.7665 0.647337 12.0518 0.470067C12.337 0.292798 12.6661 0.198853 13.0019 0.198853C13.3377 0.198853 13.6669 0.292798 13.9521 0.470067C14.2373 0.647337 14.4672 0.900862 14.6159 1.20198L17.6579 7.36598L24.4599 8.35598C24.7924 8.40394 25.1049 8.54401 25.362 8.76033C25.619 8.97666 25.8104 9.26061 25.9145 9.58006C26.0185 9.8995 26.0311 10.2417 25.9508 10.5679C25.8704 10.8941 25.7004 11.1914 25.4599 11.426L20.5359 16.224L21.6979 22.998C21.7548 23.3291 21.718 23.6695 21.5914 23.9808C21.4649 24.292 21.2538 24.5616 20.9821 24.7591C20.7103 24.9566 20.3886 25.0741 20.0535 25.0983C19.7184 25.1225 19.3833 25.0524 19.0859 24.896L13.0019 21.696L6.91792 24.896C6.62058 25.0524 6.2854 25.1225 5.95031 25.0983C5.61521 25.0741 5.29357 24.9566 5.02178 24.7591C4.74999 24.5616 4.5389 24.292 4.41238 23.9808C4.28587 23.6695 4.24899 23.3291 4.30592 22.998L5.46592 16.224L0.545916 11.424C0.306055 11.1894 0.136518 10.8925 0.0564332 10.5667C-0.0236517 10.2409 -0.011097 9.89925 0.0926809 9.58022C0.196459 9.2612 0.38733 8.97752 0.643757 8.7612C0.900185 8.54488 1.21196 8.40453 1.54392 8.35598L8.34392 7.36598L11.3879 1.20198Z" fill="#FFD952"/>
</svg>
