<svg width="26" height="26" viewBox="0 0 26 26" fill="none" xmlns="http://www.w3.org/2000/svg">
<path d="M11.3879 1.20198C11.5366 0.900862 11.7665 0.647337 12.0518 0.470067C12.337 0.292798 12.6661 0.198853 13.0019 0.198853C13.3377 0.198853 13.6669 0.292798 13.9521 0.470067C14.2373 0.647337 14.4672 0.900862 14.6159 1.20198L17.6579 7.36598L24.4599 8.35598C24.7924 8.40394 25.1049 8.54401 25.362 8.76033C25.619 8.97666 25.8104 9.26061 25.9145 9.58006C26.0185 9.8995 26.0311 10.2417 25.9508 10.5679C25.8704 10.8941 25.7004 11.1914 25.4599 11.426L20.5359 16.224L21.6979 22.998C21.7548 23.3291 21.718 23.6695 21.5914 23.9808C21.4649 24.292 21.2538 24.5616 20.9821 24.7591C20.7103 24.9566 20.3886 25.0741 20.0535 25.0983C19.7184 25.1225 19.3833 25.0524 19.0859 24.896L13.0019 21.696L6.91792 24.896C6.62058 25.0524 6.2854 25.1225 5.95031 25.0983C5.61521 25.0741 5.29357 24.9566 5.02178 24.7591C4.74999 24.5616 4.5389 24.292 4.41238 23.9808C4.28587 23.6695 4.24899 23.3291 4.30592 22.998L5.46592 16.224L0.545916 11.424C0.306055 11.1894 0.136518 10.8925 0.0564332 10.5667C-0.0236517 10.2409 -0.011097 9.89925 0.0926809 9.58022C0.196459 9.2612 0.38733 8.97752 0.643757 8.7612C0.900185 8.54488 1.21196 8.40453 1.54392 8.35598L8.34392 7.36598L11.3879 1.20198ZM12.9999 2.45198L10.0919 8.34598C9.9628 8.60739 9.77211 8.83353 9.53625 9.00494C9.30039 9.17634 9.02642 9.28789 8.73792 9.32998L2.23192 10.276L6.93992 14.864C7.14872 15.0679 7.30479 15.3196 7.39468 15.5973C7.48457 15.875 7.50559 16.1704 7.45592 16.458L6.34592 22.938L12.1659 19.878C12.4241 19.7424 12.7113 19.6715 13.0029 19.6715C13.2945 19.6715 13.5818 19.7424 13.8399 19.878L19.6599 22.938L18.5479 16.458C18.4982 16.1704 18.5193 15.875 18.6091 15.5973C18.699 15.3196 18.8551 15.0679 19.0639 14.864L23.7719 10.276L17.2659 9.32998C16.9774 9.28789 16.7034 9.17634 16.4676 9.00494C16.2317 8.83353 16.041 8.60739 15.9119 8.34598L12.9999 2.45198Z" fill="#CCCCCC"/>
</svg>
